<?xml version="1.0" standalone="no"?>
<!DOCTYPE svg PUBLIC "-//W3C//DTD SVG 20010904//EN"
 "http://www.w3.org/TR/2001/REC-SVG-20010904/DTD/svg10.dtd">
<svg version="1.0" xmlns="http://www.w3.org/2000/svg"
 width="551.000000pt" height="382.000000pt" viewBox="0 0 551.000000 382.000000"
 preserveAspectRatio="xMidYMid meet">

<g transform="translate(0.000000,382.000000) scale(0.100000,-0.100000)"
fill="#000000" stroke="none">
<path d="M1940 2221 l0 -210 -47 22 c-40 18 -66 22 -158 22 -101 0 -115 -2
-170 -29 -117 -57 -204 -175 -225 -302 -13 -76 -13 -661 0 -737 21 -129 107
-245 225 -303 55 -27 69 -29 170 -29 102 0 115 2 175 31 83 39 150 106 192
192 l33 67 3 742 2 743 -100 0 -100 0 0 -209z m-123 -372 c41 -13 111 -91 118
-133 3 -17 5 -191 3 -388 l-3 -356 -31 -39 c-41 -51 -84 -79 -134 -87 -88 -14
-170 30 -213 114 l-28 55 3 350 3 350 27 47 c54 92 142 122 255 87z"/>
<path d="M2703 2045 c-103 -32 -194 -113 -241 -213 -24 -50 -27 -69 -27 -162
0 -93 3 -112 27 -162 33 -71 102 -147 165 -180 27 -14 100 -45 163 -68 162
-61 210 -101 225 -191 15 -87 -54 -194 -140 -218 -25 -7 -154 -11 -350 -11
l-310 0 -30 -51 c-16 -28 -48 -71 -71 -95 l-41 -45 431 3 431 3 58 29 c245
124 296 454 100 638 -60 56 -75 64 -233 123 -142 54 -182 80 -210 135 -41 81
-17 191 52 243 56 43 95 47 420 47 l306 0 28 47 c15 26 48 69 72 95 l45 48
-414 -1 c-313 0 -424 -4 -456 -14z"/>
<path d="M3783 2046 c-133 -43 -241 -161 -273 -298 -5 -24 -10 -199 -10 -393
0 -380 5 -423 55 -510 36 -60 116 -132 183 -163 51 -24 69 -27 167 -27 92 0
118 4 158 22 l47 22 0 -51 c0 -99 -72 -190 -162 -204 l-38 -7 0 -100 0 -100
51 6 c117 14 241 100 297 204 52 101 54 119 50 738 l-3 570 -32 67 c-42 90
-110 160 -191 200 -58 29 -77 33 -161 35 -61 2 -111 -2 -138 -11z m222 -210
c21 -11 53 -41 70 -64 l30 -44 3 -356 c3 -404 2 -415 -70 -476 -78 -67 -184
-68 -263 -3 -73 60 -75 68 -75 460 0 291 2 354 15 385 48 115 178 159 290 98z"/>
<path d="M2194 365 c0 -77 2 -107 3 -67 2 40 2 103 0 140 -2 37 -3 4 -3 -73z"/>
<path d="M1410 410 c18 -5 40 -16 47 -26 11 -15 13 -15 13 -3 0 18 -41 39 -73
38 -15 -1 -10 -4 13 -9z"/>
<path d="M1630 400 c-11 -11 -20 -28 -19 -37 0 -15 2 -15 9 2 10 27 29 42 60
48 25 4 25 4 -2 6 -16 0 -37 -8 -48 -19z"/>
<path d="M2057 413 c19 -3 39 -14 48 -26 8 -12 15 -17 15 -11 0 20 -37 44 -66
42 -29 -1 -29 -1 3 -5z"/>
<path d="M2413 413 c9 -2 23 -2 30 0 6 3 -1 5 -18 5 -16 0 -22 -2 -12 -5z"/>
<path d="M2595 415 c6 -2 22 -6 37 -9 16 -4 34 -18 42 -34 9 -15 15 -21 16
-14 0 24 -48 62 -77 61 -15 0 -23 -2 -18 -4z"/>
<path d="M3232 413 c-7 -2 -17 -14 -23 -26 -12 -22 -12 -22 13 1 31 28 65 28
95 0 13 -12 23 -16 23 -10 0 28 -69 51 -108 35z"/>
<path d="M3475 411 c17 -3 35 -16 42 -31 8 -16 13 -19 13 -9 0 23 -33 49 -61
48 -21 -1 -20 -2 6 -8z"/>
<path d="M3607 402 c-22 -25 -21 -49 2 -62 31 -16 35 -12 10 9 -20 16 -22 23
-13 38 13 22 55 28 86 13 22 -11 22 -10 4 4 -27 21 -69 20 -89 -2z"/>
<path d="M1350 389 c-7 -11 -10 -23 -7 -25 2 -2 9 7 15 21 14 30 7 33 -8 4z"/>
<path d="M1544 320 c0 -52 1 -74 3 -47 2 26 2 68 0 95 -2 26 -3 4 -3 -48z"/>
<path d="M1721 393 c7 -12 15 -20 18 -17 3 2 -3 12 -13 22 -17 16 -18 16 -5
-5z"/>
<path d="M1814 320 c0 -52 1 -74 3 -47 2 26 2 68 0 95 -2 26 -3 4 -3 -48z"/>
<path d="M2375 399 c-4 -6 -5 -12 -2 -15 2 -3 7 2 10 11 7 17 1 20 -8 4z"/>
<path d="M2471 393 c7 -12 15 -20 18 -17 3 2 -3 12 -13 22 -17 16 -18 16 -5
-5z"/>
<path d="M2555 390 c-10 -11 -16 -22 -14 -24 2 -2 12 7 22 20 22 29 17 32 -8
4z"/>
<path d="M2822 345 c-2 -80 14 -115 53 -115 39 0 75 21 75 44 -1 21 -1 21 -12
1 -15 -27 -28 -35 -60 -35 -36 0 -42 12 -49 100 l-6 75 -1 -70z"/>
<path d="M3134 320 c0 -52 1 -74 3 -47 2 26 2 68 0 95 -2 26 -3 4 -3 -48z"/>
<path d="M3402 320 l1 -95 6 76 c4 44 12 84 21 95 14 17 14 18 -2 6 -13 -10
-17 -10 -21 0 -3 7 -5 -30 -5 -82z"/>
<path d="M2370 356 c0 -8 7 -17 16 -20 23 -9 24 -4 2 17 -14 13 -18 14 -18 3z"/>
<path d="M3193 325 c0 -22 2 -30 4 -17 2 12 2 30 0 40 -3 9 -5 -1 -4 -23z"/>
<path d="M3343 325 c0 -22 2 -30 4 -17 2 12 2 30 0 40 -3 9 -5 -1 -4 -23z"/>
<path d="M2008 319 c-10 -5 -18 -15 -18 -22 0 -8 3 -9 8 -1 4 6 16 16 27 22
11 6 16 11 10 11 -5 0 -18 -4 -27 -10z"/>
<path d="M2448 315 c54 -24 38 -75 -24 -75 -23 0 -38 7 -48 22 -9 12 -16 17
-16 11 0 -22 32 -43 65 -43 37 0 65 21 65 50 0 21 -36 50 -60 50 -8 -1 0 -7
18 -15z"/>
<path d="M3694 304 c9 -8 16 -20 16 -26 0 -6 3 -9 6 -6 8 9 -14 48 -27 48 -6
0 -3 -7 5 -16z"/>
<path d="M1610 284 c0 -6 7 -19 16 -30 14 -18 14 -18 3 6 -14 31 -19 36 -19
24z"/>
<path d="M2096 264 c-18 -26 -18 -26 3 -15 11 7 21 18 21 26 0 20 -2 19 -24
-11z"/>
<path d="M2540 283 c0 -23 48 -54 76 -50 29 4 29 4 -3 6 -21 1 -38 10 -52 27
-12 15 -21 22 -21 17z"/>
<path d="M1453 260 c-11 -16 -10 -18 2 -14 8 4 15 12 15 20 0 19 -3 18 -17 -6z"/>
<path d="M3206 267 c8 -22 35 -37 66 -37 26 0 68 25 68 41 0 5 -9 0 -20 -11
-26 -26 -68 -25 -97 2 -19 18 -23 19 -17 5z"/>
<path d="M1720 255 c-11 -13 -10 -14 4 -9 9 3 16 10 16 15 0 13 -6 11 -20 -6z"/>
<path d="M1990 264 c0 -20 28 -36 57 -31 27 4 27 4 -4 6 -19 0 -36 8 -42 19
-6 9 -11 12 -11 6z"/>
<path d="M2659 253 c-13 -16 -12 -17 4 -4 16 13 21 21 13 21 -2 0 -10 -8 -17
-17z"/>
<path d="M3590 261 c0 -6 4 -13 10 -16 6 -3 7 1 4 9 -7 18 -14 21 -14 7z"/>
<path d="M1900 249 c0 -11 25 -22 39 -17 6 1 -1 8 -14 15 -14 6 -25 7 -25 2z"/>
<path d="M3030 249 c0 -11 25 -22 39 -17 6 1 -1 8 -14 15 -14 6 -25 7 -25 2z"/>
<path d="M3695 251 c-6 -5 -26 -11 -45 -14 l-35 -4 36 -1 c22 -1 42 4 49 13
14 16 10 21 -5 6z"/>
<path d="M1393 233 c9 -2 23 -2 30 0 6 3 -1 5 -18 5 -16 0 -22 -2 -12 -5z"/>
<path d="M1663 233 c9 -2 23 -2 30 0 6 3 -1 5 -18 5 -16 0 -22 -2 -12 -5z"/>
<path d="M1726 195 c-3 -9 -16 -20 -28 -25 -16 -6 -18 -9 -6 -9 18 -1 48 24
48 40 0 14 -7 11 -14 -6z"/>
<path d="M1648 163 c7 -3 16 -2 19 1 4 3 -2 6 -13 5 -11 0 -14 -3 -6 -6z"/>
</g>
</svg>
