<svg xmlns="http://www.w3.org/2000/svg" xmlns:xlink="http://www.w3.org/1999/xlink" width="500" zoomAndPan="magnify" viewBox="0 0 375 374.999991" height="500" preserveAspectRatio="xMidYMid meet" version="1.0"><defs><g/></defs><rect x="-37.5" width="450" fill="#ffffff" y="-37.499999" height="449.999989" fill-opacity="1"/><rect x="-37.5" width="450" fill="#a1f6be" y="-37.499999" height="449.999989" fill-opacity="1"/><g fill="#23d414" fill-opacity="1"><g transform="translate(57.47601, 226.483137)"><g><path d="M 7.03125 0 L 43.109375 0 C 73.421875 0 92.984375 -20.9375 92.84375 -50 C 92.703125 -72.3125 77.828125 -96.421875 39.953125 -96.421875 L 7.03125 -96.421875 L 7.03125 -94.640625 C 11.15625 -93.390625 12.53125 -90.21875 12.53125 -78.9375 L 12.53125 -17.5 C 12.53125 -6.203125 11.15625 -3.03125 7.03125 -1.796875 Z M 23.828125 -12.125 L 23.828125 -94.359375 L 33.203125 -94.359375 C 63.921875 -94.359375 80.3125 -72.046875 80.3125 -44.5 C 80.3125 -15.703125 66.953125 -2.0625 42.84375 -2.0625 L 32.78125 -2.0625 C 25.203125 -2.0625 23.828125 -5.640625 23.828125 -12.125 Z M 23.828125 -12.125 "/></g></g></g><g fill="#23d414" fill-opacity="1"><g transform="translate(148.381105, 226.483137)"><g><path d="M 39.265625 1.375 C 55.515625 1.375 71.5 -9.09375 71.5 -26.3125 C 71.5 -41.875 57.171875 -47.9375 41.875 -54 C 30.171875 -58.8125 15.984375 -64.046875 15.984375 -77 C 15.984375 -88.71875 25.484375 -95.1875 36.640625 -95.1875 C 52.34375 -95.1875 61.984375 -86.640625 67.078125 -74.65625 L 68.46875 -75.078125 L 67.90625 -91.046875 C 62.53125 -93.953125 53.578125 -97.390625 41.046875 -97.390625 C 20.796875 -97.390625 7.4375 -87.203125 7.4375 -71.078125 C 7.4375 -56.484375 17.765625 -50.6875 34.03125 -44.21875 C 45.59375 -39.53125 62.53125 -33.203125 62.53125 -19.421875 C 62.53125 -8.265625 53.03125 -1.109375 42.015625 -1.109375 C 22.859375 -1.109375 12.390625 -13.359375 7.03125 -27.828125 L 5.515625 -27.546875 L 6.203125 -8.40625 C 12.671875 -3.71875 24.796875 1.375 39.265625 1.375 Z M 39.265625 1.375 "/></g></g></g><g fill="#23d414" fill-opacity="1"><g transform="translate(215.320055, 226.483137)"><g><path d="M 57.859375 1.375 C 71.765625 1.375 87.75 -5.78125 95.734375 -16.9375 L 95.734375 -42.84375 L 77.6875 -42.84375 L 77.6875 -41.1875 C 83.609375 -39.671875 84.71875 -36.359375 84.71875 -27.828125 L 84.859375 -13.78125 C 81.40625 -6.890625 72.453125 -1.375 62.125 -1.375 C 34.296875 -1.375 18.046875 -29.890625 18.328125 -55.921875 C 18.59375 -81.265625 33.46875 -94.90625 53.3125 -94.90625 C 69.421875 -94.90625 82.09375 -85.546875 87.203125 -73.703125 L 88.578125 -73.96875 L 88.015625 -90.21875 C 82.65625 -93.8125 69.5625 -97.390625 57.296875 -97.390625 C 27.828125 -97.390625 7.15625 -75.21875 7.15625 -47.53125 C 7.15625 -17.90625 27.140625 1.375 57.859375 1.375 Z M 57.859375 1.375 "/></g></g></g><g fill="#ffffff" fill-opacity="1"><g transform="translate(106.87012, 252.283723)"><g><path d="M 0.796875 0 L 4.9375 0 C 8.40625 0 10.640625 -2.390625 10.625 -5.71875 C 10.609375 -8.28125 8.90625 -11.03125 4.578125 -11.03125 L 0.796875 -11.03125 L 0.796875 -10.828125 C 1.28125 -10.6875 1.4375 -10.328125 1.4375 -9.03125 L 1.4375 -2 C 1.4375 -0.703125 1.28125 -0.34375 0.796875 -0.203125 Z M 2.734375 -1.390625 L 2.734375 -10.796875 L 3.796875 -10.796875 C 7.3125 -10.796875 9.1875 -8.25 9.1875 -5.09375 C 9.1875 -1.796875 7.65625 -0.234375 4.90625 -0.234375 L 3.75 -0.234375 C 2.890625 -0.234375 2.734375 -0.640625 2.734375 -1.390625 Z M 2.734375 -1.390625 "/></g></g></g><g fill="#ffffff" fill-opacity="1"><g transform="translate(130.647948, 252.283723)"><g><path d="M 0.796875 0 L 8.578125 0 L 8.703125 -2.09375 L 8.53125 -2.125 C 7.96875 -0.65625 7 -0.234375 5.484375 -0.234375 L 3.4375 -0.234375 C 2.984375 -0.234375 2.734375 -0.484375 2.734375 -0.953125 L 2.734375 -5.78125 L 4.75 -5.78125 C 6.546875 -5.78125 7 -5.421875 7.1875 -4.71875 L 7.375 -4.71875 L 7.375 -7.09375 L 7.1875 -7.09375 C 7 -6.390625 6.546875 -6.015625 4.75 -6.015625 L 2.734375 -6.015625 L 2.734375 -10.796875 L 5.046875 -10.796875 C 6.65625 -10.796875 7.578125 -10.328125 8.140625 -8.9375 L 8.3125 -8.984375 L 8.140625 -11.03125 L 0.796875 -11.03125 L 0.796875 -10.828125 C 1.28125 -10.6875 1.4375 -10.328125 1.4375 -9.03125 L 1.4375 -2 C 1.4375 -0.703125 1.28125 -0.34375 0.796875 -0.203125 Z M 0.796875 0 "/></g></g></g><g fill="#ffffff" fill-opacity="1"><g transform="translate(152.282185, 252.283723)"><g><path d="M 4.5 0.15625 C 6.359375 0.15625 8.1875 -1.046875 8.1875 -3.015625 C 8.1875 -4.796875 6.546875 -5.484375 4.796875 -6.1875 C 3.453125 -6.734375 1.828125 -7.328125 1.828125 -8.8125 C 1.828125 -10.15625 2.921875 -10.890625 4.1875 -10.890625 C 5.984375 -10.890625 7.09375 -9.921875 7.671875 -8.546875 L 7.828125 -8.59375 L 7.765625 -10.421875 C 7.15625 -10.75 6.140625 -11.140625 4.703125 -11.140625 C 2.375 -11.140625 0.84375 -9.984375 0.84375 -8.140625 C 0.84375 -6.46875 2.03125 -5.796875 3.890625 -5.0625 C 5.21875 -4.53125 7.15625 -3.796875 7.15625 -2.21875 C 7.15625 -0.953125 6.0625 -0.125 4.8125 -0.125 C 2.609375 -0.125 1.421875 -1.53125 0.796875 -3.1875 L 0.625 -3.15625 L 0.703125 -0.96875 C 1.453125 -0.421875 2.84375 0.15625 4.5 0.15625 Z M 4.5 0.15625 "/></g></g></g><g fill="#ffffff" fill-opacity="1"><g transform="translate(173.317471, 252.283723)"><g><path d="M 0.796875 0 L 3.359375 0 L 3.359375 -0.203125 C 2.875 -0.34375 2.734375 -0.703125 2.734375 -2 L 2.734375 -9.03125 C 2.734375 -10.328125 2.875 -10.6875 3.359375 -10.828125 L 3.359375 -11.03125 L 0.796875 -11.03125 L 0.796875 -10.828125 C 1.28125 -10.6875 1.4375 -10.328125 1.4375 -9.03125 L 1.4375 -2 C 1.4375 -0.703125 1.28125 -0.34375 0.796875 -0.203125 Z M 0.796875 0 "/></g></g></g><g fill="#ffffff" fill-opacity="1"><g transform="translate(189.829137, 252.283723)"><g><path d="M 6.625 0.15625 C 8.21875 0.15625 10.046875 -0.65625 10.953125 -1.9375 L 10.953125 -4.90625 L 8.890625 -4.90625 L 8.890625 -4.71875 C 9.5625 -4.546875 9.703125 -4.15625 9.703125 -3.1875 L 9.71875 -1.578125 C 9.3125 -0.78125 8.296875 -0.15625 7.109375 -0.15625 C 3.921875 -0.15625 2.0625 -3.421875 2.09375 -6.40625 C 2.125 -9.296875 3.828125 -10.859375 6.09375 -10.859375 C 7.953125 -10.859375 9.390625 -9.796875 9.984375 -8.4375 L 10.140625 -8.46875 L 10.078125 -10.328125 C 9.453125 -10.734375 7.96875 -11.140625 6.5625 -11.140625 C 3.1875 -11.140625 0.8125 -8.609375 0.8125 -5.4375 C 0.8125 -2.046875 3.109375 0.15625 6.625 0.15625 Z M 6.625 0.15625 "/></g></g></g><g fill="#ffffff" fill-opacity="1"><g transform="translate(213.874911, 252.283723)"><g><path d="M 9.125 0.125 L 9.328125 0.125 L 9.328125 -9.03125 C 9.328125 -10.328125 9.46875 -10.6875 9.96875 -10.828125 L 9.96875 -11.03125 L 7.984375 -11.03125 L 7.984375 -10.828125 C 8.6875 -10.640625 9.0625 -10.203125 9.0625 -8.40625 L 9.0625 -2.109375 L 2.171875 -11.03125 L 0.625 -11.03125 L 0.625 -10.828125 C 1.265625 -10.6875 1.453125 -10.328125 1.453125 -9.03125 L 1.453125 -2 C 1.453125 -0.703125 1.296875 -0.34375 0.8125 -0.203125 L 0.8125 0 L 2.796875 0 L 2.796875 -0.203125 C 2.078125 -0.390625 1.703125 -0.828125 1.703125 -2.640625 L 1.703125 -9.53125 Z M 9.125 0.125 "/></g></g></g><g fill="#ffffff" fill-opacity="1"><g transform="translate(236.817361, 252.283723)"><g><path d="M 0.796875 0 L 8.578125 0 L 8.703125 -2.09375 L 8.53125 -2.125 C 7.96875 -0.65625 7 -0.234375 5.484375 -0.234375 L 3.4375 -0.234375 C 2.984375 -0.234375 2.734375 -0.484375 2.734375 -0.953125 L 2.734375 -5.78125 L 4.75 -5.78125 C 6.546875 -5.78125 7 -5.421875 7.1875 -4.71875 L 7.375 -4.71875 L 7.375 -7.09375 L 7.1875 -7.09375 C 7 -6.390625 6.546875 -6.015625 4.75 -6.015625 L 2.734375 -6.015625 L 2.734375 -10.796875 L 5.046875 -10.796875 C 6.65625 -10.796875 7.578125 -10.328125 8.140625 -8.9375 L 8.3125 -8.984375 L 8.140625 -11.03125 L 0.796875 -11.03125 L 0.796875 -10.828125 C 1.28125 -10.6875 1.4375 -10.328125 1.4375 -9.03125 L 1.4375 -2 C 1.4375 -0.703125 1.28125 -0.34375 0.796875 -0.203125 Z M 0.796875 0 "/></g></g></g><g fill="#ffffff" fill-opacity="1"><g transform="translate(258.451591, 252.283723)"><g><path d="M 8.828125 0.109375 C 9.140625 0.109375 9.546875 0.078125 9.796875 0 L 9.796875 -0.1875 C 9.71875 -0.171875 9.640625 -0.171875 9.53125 -0.171875 C 9 -0.171875 8.6875 -0.6875 7.9375 -2.578125 C 7.171875 -4.53125 6.875 -5.484375 4.9375 -5.734375 C 6.984375 -5.96875 8.0625 -7.09375 8.0625 -8.578125 C 8.0625 -9.984375 7.109375 -11.03125 3.90625 -11.03125 L 0.796875 -11.03125 L 0.796875 -10.828125 C 1.296875 -10.6875 1.4375 -10.328125 1.4375 -9.03125 L 1.4375 -2 C 1.4375 -0.703125 1.296875 -0.34375 0.796875 -0.203125 L 0.796875 0 L 3.359375 0 L 3.359375 -0.203125 C 2.875 -0.34375 2.734375 -0.703125 2.734375 -2 L 2.734375 -5.6875 L 3.734375 -5.6875 C 5.625 -5.6875 5.75 -4.59375 6.671875 -2.40625 C 7.359375 -0.765625 7.609375 0.109375 8.828125 0.109375 Z M 2.734375 -5.921875 L 2.734375 -10.765625 C 2.984375 -10.78125 3.234375 -10.796875 3.46875 -10.796875 C 5.796875 -10.796875 6.71875 -9.609375 6.71875 -8.21875 C 6.71875 -6.875 5.859375 -5.921875 4.046875 -5.921875 Z M 2.734375 -5.921875 "/></g></g></g><g fill="#ffffff" fill-opacity="1"><g transform="translate(69.919329, 200.814493)"><g><path d="M 10.59375 -10.375 C 16.40625 -11.625 22.328125 -12.984375 26.890625 -17.328125 C 27.109375 -17.546875 27.21875 -17.546875 27.65625 -17.5 C 28.625 -17.328125 29.28125 -17.109375 29.453125 -16.953125 C 29.546875 -16.78125 30.09375 -16.515625 30.15625 -16.890625 C 30.15625 -17.0625 29.9375 -17.21875 29.828125 -17.328125 C 29.34375 -17.765625 27.984375 -17.765625 27.8125 -17.8125 C 27.546875 -17.875 27.4375 -17.765625 29.171875 -19.671875 C 31.625 -22.484375 33.296875 -27.171875 31.734375 -30.75 C 30.90625 -32.59375 28.796875 -34.609375 26.890625 -35.3125 C 19.671875 -37.921875 10.4375 -34.546875 5.21875 -29.390625 C 4.125 -28.359375 3.046875 -25.96875 4.453125 -24.71875 C 4.828125 -24.34375 4.9375 -24.390625 4.671875 -24.828125 C 3.09375 -27.171875 5.4375 -29.34375 7.109375 -30.703125 C 11.578125 -34.4375 19.0625 -37.046875 24.875 -35.421875 C 26.84375 -34.875 27.984375 -34.234375 29.171875 -32.875 C 30.59375 -31.296875 30.96875 -30.421875 31.1875 -28.359375 C 31.5625 -24.125 29.0625 -20.859375 26.515625 -17.921875 L 24.71875 -17.875 L 21.890625 -17.65625 C 20.75 -17.609375 20.75 -17.609375 18.796875 -17.390625 C 17.71875 -17.28125 17.546875 -17.28125 17.4375 -17.4375 C 17.28125 -17.65625 17 -18.6875 17 -19.0625 C 17.0625 -21.953125 19.171875 -25.484375 20.375 -28.3125 C 21.25 -30.265625 21.453125 -30.90625 21.453125 -31.234375 C 21.453125 -31.5625 21.296875 -31.890625 21.078125 -31.890625 C 20.75 -31.890625 20.265625 -31.515625 20.15625 -31.234375 L 18.859375 -28.359375 C 16.46875 -23.421875 15.75 -21.515625 15.59375 -19.890625 C 15.53125 -18.75 15.640625 -18.3125 16.296875 -17.609375 L 16.671875 -17.171875 L 15.046875 -16.84375 C 13.03125 -16.40625 4.890625 -14.234375 6.296875 -11.296875 C 6.90625 -10 8.796875 -10 10.59375 -10.375 Z M 9.9375 -10.59375 C 8.90625 -10.484375 6.140625 -10.375 6.625 -12.28125 C 7.328125 -14.609375 13.03125 -16.1875 15.640625 -16.734375 L 16.890625 -16.953125 C 17.390625 -16.734375 18.203125 -16.46875 18.6875 -16.671875 L 18.640625 -16.84375 C 18.03125 -16.78125 17.8125 -17 18.359375 -17.0625 L 19.390625 -17.171875 L 20.640625 -17.328125 L 21.84375 -17.4375 L 25.375 -17.546875 C 25.640625 -17.609375 26.015625 -17.609375 26.015625 -17.546875 C 23.09375 -14.671875 18.578125 -12.65625 14.015625 -11.46875 C 12.5 -11.078125 11.078125 -10.75 9.9375 -10.59375 Z M 9.9375 -10.59375 "/></g></g></g><g fill="#ffffff" fill-opacity="1"><g transform="translate(102.237545, 200.814493)"><g><path d="M 3.6875 -22.59375 C 3.75 -22.921875 3.796875 -23.25 3.796875 -23.421875 C 3.859375 -23.625 3.796875 -23.6875 3.578125 -23.734375 L 3.046875 -23.6875 C 2.71875 -23.625 2.71875 -23.421875 3.046875 -22.65625 C 3.421875 -21.953125 3.640625 -21.890625 3.6875 -22.59375 Z M 1.90625 -15.265625 C 3.203125 -15.265625 4.625 -15.640625 5.921875 -16.515625 C 6.734375 -16.953125 7.546875 -17.546875 7.328125 -17.546875 C 7.21875 -17.546875 7.0625 -17.5 7.015625 -17.4375 C 6.796875 -17.28125 6.359375 -17 5.765625 -16.734375 C 4.234375 -15.96875 3.53125 -15.8125 1.953125 -15.8125 C 1.09375 -15.8125 0.765625 -16.25 0.765625 -16.25 C 0.59375 -16.46875 0.65625 -16.78125 0.703125 -17 C 0.8125 -17.4375 1.46875 -18.75 1.796875 -19.171875 C 1.796875 -19.234375 1.84375 -19.28125 1.84375 -19.34375 C 1.953125 -19.5 2.015625 -19.671875 2.015625 -19.78125 C 1.90625 -20.046875 1.359375 -20 1.03125 -19.71875 C 0.65625 -19.453125 0 -18.359375 -0.21875 -17.65625 C -0.375 -17.109375 -0.65625 -16.5625 -0.484375 -16.25 C -0.4375 -16.140625 -0.109375 -15.75 0.546875 -15.484375 C 0.921875 -15.375 1.359375 -15.21875 1.90625 -15.265625 Z M 1.90625 -15.265625 "/></g></g></g><g fill="#ffffff" fill-opacity="1"><g transform="translate(109.298664, 200.814493)"><g><path d="M -13.578125 7.71875 C -12.984375 7.875 -11.84375 7.546875 -10.859375 6.953125 C -10.328125 6.625 -9.78125 6.25 -9.609375 6.140625 C -7.0625 3.796875 -5.109375 0.921875 -2.34375 -4.625 L -1.09375 -7.21875 C -0.765625 -7.875 -0.265625 -8.90625 0 -9.5625 C 0.265625 -10.21875 0.546875 -10.8125 0.65625 -10.921875 C 1.515625 -11.515625 3.6875 -12.4375 4.453125 -12.4375 C 4.671875 -12.5 4.9375 -12.4375 5.109375 -12.390625 C 5.328125 -12.328125 5.375 -12.328125 5.375 -12.609375 C 5.375 -12.9375 5.265625 -12.984375 4.671875 -12.9375 C 3.484375 -12.828125 2.125 -12.0625 0.921875 -11.578125 C 0.765625 -11.578125 2.609375 -15.859375 3.75 -18.140625 C 3.96875 -18.578125 4.234375 -19.71875 3.640625 -20.15625 C 3.484375 -20.265625 2.984375 -20.3125 2.234375 -20.046875 C 1.03125 -19.671875 -0.15625 -17.765625 -0.65625 -16.671875 C -0.875 -16.1875 -0.8125 -15.859375 -0.546875 -15.640625 C -0.109375 -15.328125 0.65625 -15.484375 1.1875 -15.96875 C 1.359375 -16.078125 1.46875 -16.140625 1.46875 -16.03125 C 1.46875 -15.921875 1.140625 -14.828125 0.546875 -13.53125 C 0.328125 -13.203125 -0.4375 -11.40625 -0.59375 -10.8125 L -1.359375 -10.265625 C -4.078125 -8.640625 -5.109375 -7.875 -7.328125 -5.703125 C -8.75 -4.34375 -10.640625 -2.28125 -11.296875 -1.359375 C -12.328125 0 -13.46875 1.25 -14.234375 3.375 C -14.671875 4.34375 -15.15625 7.328125 -13.578125 7.71875 Z M 0.109375 -16.25 C 0.109375 -16.671875 1.359375 -18.796875 1.953125 -19.390625 C 2.546875 -20 3.265625 -20.046875 3.421875 -19.5 C 3.484375 -19.34375 3.375 -19.234375 3.203125 -18.953125 C 2.71875 -18.25 2.34375 -17.21875 0.921875 -16.25 C 0.328125 -15.8125 0.109375 -15.8125 0.109375 -16.25 Z M -12.4375 7.28125 C -14.453125 7.546875 -14.234375 5.8125 -14.171875 4.671875 C -13.90625 1.734375 -10.546875 -2.171875 -8.578125 -4.125 C -7.109375 -5.59375 -5.96875 -6.6875 -4.125 -8.15625 C -3.75 -8.53125 -0.984375 -10.265625 -0.921875 -10.15625 C -0.921875 -10.15625 -1.09375 -9.609375 -1.359375 -9.015625 C -1.578125 -8.421875 -2.28125 -6.953125 -2.875 -5.8125 L -4.71875 -2.125 C -6.25 0.921875 -8.09375 3.75 -9.5625 5.265625 C -10.484375 6.359375 -11.953125 7.171875 -12.4375 7.28125 Z M -12.4375 7.28125 "/></g></g></g><g fill="#ffffff" fill-opacity="1"><g transform="translate(116.305469, 200.814493)"><g><path d="M 3.6875 -22.59375 C 3.75 -22.921875 3.796875 -23.25 3.796875 -23.421875 C 3.859375 -23.625 3.796875 -23.6875 3.578125 -23.734375 L 3.046875 -23.6875 C 2.71875 -23.625 2.71875 -23.421875 3.046875 -22.65625 C 3.421875 -21.953125 3.640625 -21.890625 3.6875 -22.59375 Z M 1.90625 -15.265625 C 3.203125 -15.265625 4.625 -15.640625 5.921875 -16.515625 C 6.734375 -16.953125 7.546875 -17.546875 7.328125 -17.546875 C 7.21875 -17.546875 7.0625 -17.5 7.015625 -17.4375 C 6.796875 -17.28125 6.359375 -17 5.765625 -16.734375 C 4.234375 -15.96875 3.53125 -15.8125 1.953125 -15.8125 C 1.09375 -15.8125 0.765625 -16.25 0.765625 -16.25 C 0.59375 -16.46875 0.65625 -16.78125 0.703125 -17 C 0.8125 -17.4375 1.46875 -18.75 1.796875 -19.171875 C 1.796875 -19.234375 1.84375 -19.28125 1.84375 -19.34375 C 1.953125 -19.5 2.015625 -19.671875 2.015625 -19.78125 C 1.90625 -20.046875 1.359375 -20 1.03125 -19.71875 C 0.65625 -19.453125 0 -18.359375 -0.21875 -17.65625 C -0.375 -17.109375 -0.65625 -16.5625 -0.484375 -16.25 C -0.4375 -16.140625 -0.109375 -15.75 0.546875 -15.484375 C 0.921875 -15.375 1.359375 -15.21875 1.90625 -15.265625 Z M 1.90625 -15.265625 "/></g></g></g><g fill="#ffffff" fill-opacity="1"><g transform="translate(123.366588, 200.814493)"><g><path d="M 1.25 -12.28125 C 1.6875 -12.171875 1.796875 -12.328125 1.359375 -12.4375 C 1.09375 -12.546875 0.765625 -12.9375 0.59375 -13.46875 C 0.4375 -14.078125 0.375 -14.828125 0.375 -15.59375 C 0.21875 -16.671875 2.71875 -23.03125 4.078125 -26.078125 C 4.078125 -26.078125 6.078125 -26.078125 7.65625 -26.34375 C 8.6875 -26.515625 10.4375 -27 10.75 -27.109375 C 11.515625 -27.265625 12.609375 -27.65625 13.03125 -27.484375 C 13.53125 -27.328125 13.578125 -27.4375 13.09375 -27.65625 C 12.71875 -27.875 11.25 -27.703125 10.546875 -27.546875 C 8.90625 -27.265625 8.46875 -27.171875 7.546875 -26.953125 C 6.6875 -26.78125 4.296875 -26.40625 4.1875 -26.5625 C 4.890625 -28.140625 5.8125 -29.65625 5.875 -30.265625 C 5.765625 -30.53125 4.890625 -30.421875 4.5625 -30.09375 C 4.015625 -28.796875 3.75 -28.25 2.984375 -26.734375 C 2.546875 -26.84375 1.953125 -27 1.03125 -27.703125 C 0.328125 -28.25 0.546875 -28.625 -1.03125 -30.203125 C -1.1875 -30.421875 -1.953125 -30.796875 -2.828125 -31.078125 C -3.53125 -31.34375 -4.71875 -31.34375 -5.703125 -31.125 C -6.84375 -30.859375 -7.28125 -30.421875 -7.015625 -30.15625 C -6.90625 -30.046875 -6.84375 -30.046875 -6.84375 -30.15625 C -6.84375 -30.375 -5.484375 -30.75 -4.78125 -30.75 C -4.125 -30.75 -3.53125 -30.59375 -2.609375 -30.15625 C -2.34375 -29.984375 -1.625 -29.390625 -0.8125 -28.625 C 0.21875 -27.546875 1.296875 -26.671875 2.765625 -26.296875 C 1.84375 -23.625 -0.4375 -19.28125 -0.765625 -16.296875 C -0.921875 -15.109375 -0.4375 -13.25 0.21875 -12.71875 C 0.484375 -12.5 0.765625 -12.390625 1.25 -12.28125 Z M 1.25 -12.28125 "/></g></g></g><g fill="#ffffff" fill-opacity="1"><g transform="translate(127.005786, 200.814493)"><g><path d="M -0.15625 -15.640625 C 0.328125 -15.640625 0.59375 -15.8125 1.359375 -16.40625 L 1.953125 -16.890625 C 2.125 -16.296875 2.4375 -15.859375 2.875 -15.640625 C 4.234375 -14.890625 8.6875 -16.40625 8.96875 -17.546875 C 8.96875 -17.609375 8.53125 -17.171875 7.28125 -16.671875 C 5.921875 -16.25 4.828125 -15.8125 4.125 -16.140625 C 3.3125 -16.515625 3.421875 -17.21875 3.640625 -17.875 C 3.90625 -18.75 4.1875 -19.234375 4.015625 -19.390625 C 3.96875 -19.453125 3.796875 -19.609375 3.6875 -19.78125 C 3.421875 -20.203125 2.9375 -20.265625 2.125 -19.890625 C 0.984375 -19.34375 -0.59375 -17.28125 -0.703125 -16.296875 C -0.765625 -15.8125 -0.59375 -15.640625 -0.15625 -15.640625 Z M 0.375 -16.25 C -0.21875 -16.25 1.25 -18.859375 2.125 -19.390625 C 2.546875 -19.671875 3.15625 -19.71875 3.265625 -19.5 C 3.421875 -19.171875 0.875 -16.25 0.375 -16.25 Z M 0.375 -16.25 "/></g></g></g><g fill="#ffffff" fill-opacity="1"><g transform="translate(135.859346, 200.814493)"><g><path d="M 2.390625 -12.390625 C 2.984375 -12.171875 3.421875 -12.171875 3.90625 -12.390625 C 4.125 -12.5 4.125 -12.546875 3.75 -12.5 C 1.796875 -12.28125 1.25 -14.890625 1.25 -17.21875 C 1.1875 -19.5625 2.9375 -24.125 4.1875 -27.375 C 4.34375 -27.8125 4.5625 -28.25 4.828125 -28.6875 C 5.875 -29.390625 7.390625 -30.703125 8.421875 -31.9375 C 9.1875 -32.8125 10.109375 -33.625 10.484375 -34.71875 C 10.75 -36.234375 9.828125 -36.125 9.015625 -35.75 C 7.828125 -35.265625 5.765625 -32.65625 4.296875 -29.765625 L 3.75 -28.734375 C 3.421875 -28.25 1.46875 -27.59375 0.875 -27.546875 C 0.328125 -27.484375 -0.65625 -27.546875 0.109375 -27.0625 C 0.703125 -26.671875 0.921875 -26.890625 1.625 -27.109375 C 1.90625 -27.21875 3.09375 -27.875 3.09375 -27.8125 C 3.15625 -27.8125 0.703125 -22.0625 0.265625 -20.046875 C -0.21875 -17.765625 -0.375 -13.359375 2.390625 -12.390625 Z M 5 -29.234375 C 4.828125 -29.390625 7.71875 -33.84375 7.9375 -34.125 C 8.640625 -35.046875 9.125 -35.53125 9.40625 -35.578125 C 9.890625 -35.859375 10.640625 -35.796875 10.15625 -34.65625 C 10 -34.0625 8.203125 -31.9375 7.0625 -30.90625 C 6.359375 -30.265625 5.109375 -29.171875 5 -29.234375 Z M 5 -29.234375 "/></g></g></g><g fill="#ffffff" fill-opacity="1"><g transform="translate(140.965082, 200.814493)"><g/></g></g><g fill="#ffffff" fill-opacity="1"><g transform="translate(149.112531, 200.814493)"><g><path d="M 25.15625 -4.828125 C 25.203125 -4.890625 25.046875 -4.9375 24.671875 -4.9375 C 23.25 -5 21.25 -5.96875 20.203125 -6.84375 L 18.75 -7.828125 L 17.984375 -8.3125 C 20.921875 -10.21875 23.09375 -13.140625 21.5625 -16.734375 C 20.640625 -18.90625 18.359375 -19.5625 16.078125 -20.15625 C 13.46875 -20.859375 10.921875 -21.5625 10.21875 -23.734375 C 8.15625 -30.53125 17.984375 -36.125 23.203125 -36.9375 C 26.890625 -37.546875 37.21875 -36.828125 32.8125 -30.484375 C 32.046875 -29.390625 30.640625 -28.3125 29.5 -27.921875 C 28.6875 -27.59375 28.25 -27.328125 28.84375 -27.4375 C 31.296875 -27.875 35.046875 -30.796875 35.046875 -33.515625 C 35.15625 -37.4375 28.203125 -37.8125 25.375 -37.484375 C 23.140625 -37.546875 19.9375 -36.625 16.953125 -35.09375 C 13.46875 -33.359375 6.25 -27.765625 9.1875 -22.765625 C 11.515625 -18.75 18.46875 -21.515625 20.421875 -15.921875 C 21.03125 -14.234375 20.421875 -11.734375 18.859375 -10 C 18.421875 -9.5625 17.765625 -8.90625 17.609375 -8.859375 C 17.328125 -8.640625 17.28125 -8.6875 16.84375 -8.96875 C 15.21875 -10.046875 11.6875 -11.359375 10.046875 -11.40625 C 7.4375 -11.40625 4.71875 -10.640625 4.015625 -9.015625 C 3.578125 -7.828125 3.6875 -6.625 5 -5.875 C 6.078125 -5.265625 8.359375 -4.890625 10.546875 -5.375 C 12.28125 -5.8125 14.28125 -6.46875 15.921875 -7.28125 C 16.46875 -7.546875 16.953125 -7.765625 17.0625 -7.765625 C 17.171875 -7.765625 17.921875 -7.328125 18.6875 -6.796875 C 19.390625 -6.296875 23.421875 -3.859375 25.15625 -4.828125 Z M 8.640625 -5.59375 C 6.734375 -5.59375 6.296875 -5.703125 5.4375 -6.078125 C 4.234375 -6.6875 3.859375 -7.984375 4.625 -9.078125 C 5.546875 -10.4375 7.4375 -10.921875 9.015625 -10.96875 C 11.359375 -11.03125 14.078125 -9.71875 15.96875 -8.46875 L 16.515625 -8.15625 C 13.796875 -6.6875 11.03125 -5.59375 8.640625 -5.59375 Z M 8.640625 -5.59375 "/></g></g></g><g fill="#ffffff" fill-opacity="1"><g transform="translate(175.455959, 200.814493)"><g><path d="M -0.21875 -14.671875 C 0 -14.390625 1.25 -14.5 1.84375 -14.828125 C 3.15625 -15.53125 3.3125 -16.1875 3.53125 -16.40625 C 5.21875 -16.1875 6.25 -16.40625 7.015625 -16.625 C 7.28125 -16.671875 8.265625 -17.4375 8.265625 -17.5 C 8.265625 -17.71875 7.28125 -17 6.515625 -16.84375 C 5.265625 -16.5625 4.5625 -16.671875 3.796875 -16.78125 C 4.296875 -17.921875 4.5625 -18.953125 3.796875 -20.53125 C 3.265625 -21.453125 1.6875 -21.734375 0.484375 -21.515625 C -0.484375 -21.34375 -1.140625 -20.59375 -1.296875 -19.609375 C -1.40625 -18.859375 -1.296875 -18.421875 -0.703125 -17.984375 C -0.4375 -17.765625 -0.15625 -17.5 -0.15625 -17.4375 C -0.15625 -17.390625 -0.21875 -17.109375 -0.375 -16.84375 C -0.765625 -16.1875 -0.703125 -15.265625 -0.21875 -14.671875 Z M 3.203125 -16.890625 C 2.765625 -16.84375 1.953125 -17 1.734375 -17.21875 C 1.6875 -17.28125 1.796875 -17.4375 1.84375 -17.65625 C 1.953125 -18.140625 1.84375 -18.203125 1.25 -18.203125 C 0.921875 -18.203125 0.765625 -18.203125 0.546875 -17.984375 L 0.328125 -17.765625 L 0.046875 -17.984375 C -0.546875 -18.421875 -0.765625 -19.015625 -0.59375 -19.828125 C -0.484375 -20.421875 -0.15625 -20.8125 0.265625 -21.03125 C 1.359375 -21.5625 3.203125 -20.859375 3.53125 -19.71875 C 3.796875 -18.75 3.53125 -17.390625 3.203125 -16.890625 Z M 0.984375 -15.046875 C 0.765625 -15.046875 0.703125 -15.109375 0.703125 -15.328125 C 0.703125 -15.703125 1.1875 -16.625 1.40625 -16.734375 C 1.515625 -16.78125 1.6875 -16.78125 1.796875 -16.78125 C 2.171875 -16.671875 2.546875 -16.515625 2.9375 -16.515625 C 2.9375 -16.140625 1.46875 -15.046875 0.984375 -15.046875 Z M 0.984375 -15.046875 "/></g></g></g><g fill="#ffffff" fill-opacity="1"><g transform="translate(183.494781, 200.814493)"><g><path d="M 2.390625 -12.390625 C 2.984375 -12.171875 3.421875 -12.171875 3.90625 -12.390625 C 4.125 -12.5 4.125 -12.546875 3.75 -12.5 C 1.796875 -12.28125 1.25 -14.890625 1.25 -17.21875 C 1.1875 -19.5625 2.9375 -24.125 4.1875 -27.375 C 4.34375 -27.8125 4.5625 -28.25 4.828125 -28.6875 C 5.875 -29.390625 7.390625 -30.703125 8.421875 -31.9375 C 9.1875 -32.8125 10.109375 -33.625 10.484375 -34.71875 C 10.75 -36.234375 9.828125 -36.125 9.015625 -35.75 C 7.828125 -35.265625 5.765625 -32.65625 4.296875 -29.765625 L 3.75 -28.734375 C 3.421875 -28.25 1.46875 -27.59375 0.875 -27.546875 C 0.328125 -27.484375 -0.65625 -27.546875 0.109375 -27.0625 C 0.703125 -26.671875 0.921875 -26.890625 1.625 -27.109375 C 1.90625 -27.21875 3.09375 -27.875 3.09375 -27.8125 C 3.15625 -27.8125 0.703125 -22.0625 0.265625 -20.046875 C -0.21875 -17.765625 -0.375 -13.359375 2.390625 -12.390625 Z M 5 -29.234375 C 4.828125 -29.390625 7.71875 -33.84375 7.9375 -34.125 C 8.640625 -35.046875 9.125 -35.53125 9.40625 -35.578125 C 9.890625 -35.859375 10.640625 -35.796875 10.15625 -34.65625 C 10 -34.0625 8.203125 -31.9375 7.0625 -30.90625 C 6.359375 -30.265625 5.109375 -29.171875 5 -29.234375 Z M 5 -29.234375 "/></g></g></g><g fill="#ffffff" fill-opacity="1"><g transform="translate(188.600516, 200.814493)"><g><path d="M 4.1875 -15.484375 C 4.5625 -15.484375 5.109375 -15.59375 5.265625 -15.640625 C 6.03125 -15.8125 6.796875 -16.078125 7.5 -16.40625 C 7.71875 -16.515625 9.453125 -17.328125 9.296875 -17.609375 C 9.234375 -17.65625 8.859375 -17.390625 8.6875 -17.28125 L 7.875 -16.890625 C 6.90625 -16.515625 5.921875 -16.1875 4.890625 -16.078125 L 4.515625 -16.140625 L 4.453125 -16.1875 C 4.34375 -16.40625 4.671875 -17.21875 4.78125 -17.4375 C 5 -17.984375 5.703125 -18.953125 5.703125 -19.5625 C 5.65625 -19.78125 4.828125 -19.671875 4.671875 -19.5 C 4.296875 -19.125 3.859375 -18.46875 3.484375 -18.09375 C 2.234375 -16.890625 1.25 -16.296875 0.875 -16.296875 C 0.546875 -16.296875 0.765625 -16.734375 1.734375 -18.421875 C 2.171875 -19.234375 2.34375 -19.78125 2.125 -19.890625 C 1.90625 -20 1.359375 -20.046875 1.140625 -19.9375 C 0.875 -19.78125 -0.265625 -17.390625 -0.265625 -17 C -0.265625 -16.78125 -0.15625 -16.40625 -0.046875 -16.1875 C 0.15625 -15.75 0.21875 -15.703125 0.546875 -15.703125 C 0.765625 -15.703125 1.09375 -15.8125 1.25 -15.921875 C 2.0625 -16.359375 2.390625 -16.5625 2.765625 -16.890625 L 3.203125 -17.28125 L 3.203125 -16.78125 C 3.203125 -16.296875 3.484375 -15.421875 4.1875 -15.484375 Z M 4.1875 -15.484375 "/></g></g></g><g fill="#ffffff" fill-opacity="1"><g transform="translate(197.617029, 200.814493)"><g><path d="M 1.25 -12.28125 C 1.6875 -12.171875 1.796875 -12.328125 1.359375 -12.4375 C 1.09375 -12.546875 0.765625 -12.9375 0.59375 -13.46875 C 0.4375 -14.078125 0.375 -14.828125 0.375 -15.59375 C 0.21875 -16.671875 2.71875 -23.03125 4.078125 -26.078125 C 4.078125 -26.078125 6.078125 -26.078125 7.65625 -26.34375 C 8.6875 -26.515625 10.4375 -27 10.75 -27.109375 C 11.515625 -27.265625 12.609375 -27.65625 13.03125 -27.484375 C 13.53125 -27.328125 13.578125 -27.4375 13.09375 -27.65625 C 12.71875 -27.875 11.25 -27.703125 10.546875 -27.546875 C 8.90625 -27.265625 8.46875 -27.171875 7.546875 -26.953125 C 6.6875 -26.78125 4.296875 -26.40625 4.1875 -26.5625 C 4.890625 -28.140625 5.8125 -29.65625 5.875 -30.265625 C 5.765625 -30.53125 4.890625 -30.421875 4.5625 -30.09375 C 4.015625 -28.796875 3.75 -28.25 2.984375 -26.734375 C 2.546875 -26.84375 1.953125 -27 1.03125 -27.703125 C 0.328125 -28.25 0.546875 -28.625 -1.03125 -30.203125 C -1.1875 -30.421875 -1.953125 -30.796875 -2.828125 -31.078125 C -3.53125 -31.34375 -4.71875 -31.34375 -5.703125 -31.125 C -6.84375 -30.859375 -7.28125 -30.421875 -7.015625 -30.15625 C -6.90625 -30.046875 -6.84375 -30.046875 -6.84375 -30.15625 C -6.84375 -30.375 -5.484375 -30.75 -4.78125 -30.75 C -4.125 -30.75 -3.53125 -30.59375 -2.609375 -30.15625 C -2.34375 -29.984375 -1.625 -29.390625 -0.8125 -28.625 C 0.21875 -27.546875 1.296875 -26.671875 2.765625 -26.296875 C 1.84375 -23.625 -0.4375 -19.28125 -0.765625 -16.296875 C -0.921875 -15.109375 -0.4375 -13.25 0.21875 -12.71875 C 0.484375 -12.5 0.765625 -12.390625 1.25 -12.28125 Z M 1.25 -12.28125 "/></g></g></g><g fill="#ffffff" fill-opacity="1"><g transform="translate(201.256227, 200.814493)"><g><path d="M 3.6875 -22.59375 C 3.75 -22.921875 3.796875 -23.25 3.796875 -23.421875 C 3.859375 -23.625 3.796875 -23.6875 3.578125 -23.734375 L 3.046875 -23.6875 C 2.71875 -23.625 2.71875 -23.421875 3.046875 -22.65625 C 3.421875 -21.953125 3.640625 -21.890625 3.6875 -22.59375 Z M 1.90625 -15.265625 C 3.203125 -15.265625 4.625 -15.640625 5.921875 -16.515625 C 6.734375 -16.953125 7.546875 -17.546875 7.328125 -17.546875 C 7.21875 -17.546875 7.0625 -17.5 7.015625 -17.4375 C 6.796875 -17.28125 6.359375 -17 5.765625 -16.734375 C 4.234375 -15.96875 3.53125 -15.8125 1.953125 -15.8125 C 1.09375 -15.8125 0.765625 -16.25 0.765625 -16.25 C 0.59375 -16.46875 0.65625 -16.78125 0.703125 -17 C 0.8125 -17.4375 1.46875 -18.75 1.796875 -19.171875 C 1.796875 -19.234375 1.84375 -19.28125 1.84375 -19.34375 C 1.953125 -19.5 2.015625 -19.671875 2.015625 -19.78125 C 1.90625 -20.046875 1.359375 -20 1.03125 -19.71875 C 0.65625 -19.453125 0 -18.359375 -0.21875 -17.65625 C -0.375 -17.109375 -0.65625 -16.5625 -0.484375 -16.25 C -0.4375 -16.140625 -0.109375 -15.75 0.546875 -15.484375 C 0.921875 -15.375 1.359375 -15.21875 1.90625 -15.265625 Z M 1.90625 -15.265625 "/></g></g></g><g fill="#ffffff" fill-opacity="1"><g transform="translate(208.317346, 200.814493)"><g><path d="M -0.21875 -14.671875 C 0 -14.390625 1.25 -14.5 1.84375 -14.828125 C 3.15625 -15.53125 3.3125 -16.1875 3.53125 -16.40625 C 5.21875 -16.1875 6.25 -16.40625 7.015625 -16.625 C 7.28125 -16.671875 8.265625 -17.4375 8.265625 -17.5 C 8.265625 -17.71875 7.28125 -17 6.515625 -16.84375 C 5.265625 -16.5625 4.5625 -16.671875 3.796875 -16.78125 C 4.296875 -17.921875 4.5625 -18.953125 3.796875 -20.53125 C 3.265625 -21.453125 1.6875 -21.734375 0.484375 -21.515625 C -0.484375 -21.34375 -1.140625 -20.59375 -1.296875 -19.609375 C -1.40625 -18.859375 -1.296875 -18.421875 -0.703125 -17.984375 C -0.4375 -17.765625 -0.15625 -17.5 -0.15625 -17.4375 C -0.15625 -17.390625 -0.21875 -17.109375 -0.375 -16.84375 C -0.765625 -16.1875 -0.703125 -15.265625 -0.21875 -14.671875 Z M 3.203125 -16.890625 C 2.765625 -16.84375 1.953125 -17 1.734375 -17.21875 C 1.6875 -17.28125 1.796875 -17.4375 1.84375 -17.65625 C 1.953125 -18.140625 1.84375 -18.203125 1.25 -18.203125 C 0.921875 -18.203125 0.765625 -18.203125 0.546875 -17.984375 L 0.328125 -17.765625 L 0.046875 -17.984375 C -0.546875 -18.421875 -0.765625 -19.015625 -0.59375 -19.828125 C -0.484375 -20.421875 -0.15625 -20.8125 0.265625 -21.03125 C 1.359375 -21.5625 3.203125 -20.859375 3.53125 -19.71875 C 3.796875 -18.75 3.53125 -17.390625 3.203125 -16.890625 Z M 0.984375 -15.046875 C 0.765625 -15.046875 0.703125 -15.109375 0.703125 -15.328125 C 0.703125 -15.703125 1.1875 -16.625 1.40625 -16.734375 C 1.515625 -16.78125 1.6875 -16.78125 1.796875 -16.78125 C 2.171875 -16.671875 2.546875 -16.515625 2.9375 -16.515625 C 2.9375 -16.140625 1.46875 -15.046875 0.984375 -15.046875 Z M 0.984375 -15.046875 "/></g></g></g><g fill="#ffffff" fill-opacity="1"><g transform="translate(216.356167, 200.814493)"><g><path d="M 4.890625 -15.046875 C 6.40625 -14.609375 7.71875 -15.046875 9.609375 -16.25 C 11.078125 -17.171875 11.1875 -17.609375 10.96875 -17.4375 L 9.71875 -16.625 C 8.09375 -15.53125 5.703125 -14.5625 5 -16.625 C 4.828125 -17.109375 4.71875 -17.4375 4.71875 -18.203125 C 4.71875 -18.3125 4.625 -18.46875 4.515625 -18.578125 C 4.078125 -19.015625 3.203125 -18.796875 2.0625 -17.921875 C 1.84375 -17.765625 1.6875 -17.71875 1.625 -17.71875 C 1.578125 -17.71875 1.734375 -18.09375 1.84375 -18.421875 C 2.0625 -19.125 2.234375 -19.28125 2.171875 -19.5625 C 2.125 -19.78125 1.46875 -19.71875 1.09375 -19.453125 C 0.765625 -19.234375 0.65625 -19.0625 0.109375 -17.921875 C -0.265625 -17.171875 -0.328125 -16.296875 0 -16.03125 C 0.328125 -15.75 0.59375 -15.96875 1.40625 -16.78125 C 1.578125 -16.953125 2.875 -18.140625 3.203125 -18.140625 C 3.265625 -18.140625 3.265625 -17.875 3.265625 -17.609375 C 3.3125 -16.625 3.484375 -15.421875 4.890625 -15.046875 Z M 4.890625 -15.046875 "/></g></g></g><g fill="#ffffff" fill-opacity="1"><g transform="translate(227.328064, 200.814493)"><g><path d="M -3.53125 -8.265625 C -1.359375 -7.65625 -0.046875 -9.453125 0.59375 -10.640625 C 1.09375 -11.515625 1.25 -12.828125 1.25 -13.796875 L 1.25 -14.171875 C 1.84375 -14.671875 2.4375 -15.109375 2.984375 -15.484375 C 3.90625 -16.140625 5.046875 -16.953125 5.265625 -17.546875 C 5.265625 -17.609375 4.890625 -17.28125 4.71875 -17.171875 C 3.6875 -16.46875 2.609375 -15.59375 1.625 -15 L 1.25 -14.78125 C 1.25 -15.859375 0.875 -17.609375 1.140625 -18.359375 C 1.515625 -19.125 1.578125 -19.28125 1.25 -19.609375 C 1.09375 -19.78125 0.59375 -19.9375 0.328125 -19.828125 C 0.046875 -19.71875 -0.21875 -19.28125 -0.265625 -19.015625 C -0.484375 -17.5 -0.265625 -15.96875 -0.375 -14.453125 L -0.4375 -13.90625 C -1.09375 -13.421875 -1.796875 -12.71875 -2.4375 -12.171875 C -3.3125 -11.515625 -4.015625 -10.75 -4.078125 -9.5625 C -4.078125 -9.1875 -3.796875 -8.359375 -3.53125 -8.265625 Z M 0.921875 -18.6875 C 0.875 -18.640625 0.875 -18.859375 0.875 -19.015625 C 0.875 -19.125 0.765625 -19.28125 0.875 -19.390625 L 1.09375 -19.234375 C 1.1875 -19.125 0.921875 -18.75 0.921875 -18.6875 Z M -1.84375 -9.078125 C -2.609375 -8.421875 -3.75 -8.359375 -3.75 -9.5625 C -3.75 -10.328125 -3.3125 -10.96875 -2.234375 -11.890625 C -1.40625 -12.546875 -0.59375 -13.140625 -0.484375 -13.140625 C -0.4375 -13.203125 -0.4375 -12.828125 -0.4375 -12.390625 C -0.546875 -10.328125 -0.765625 -9.828125 -1.84375 -9.078125 Z M -1.84375 -9.078125 "/></g></g></g><g fill="#ffffff" fill-opacity="1"><g transform="translate(232.488113, 200.814493)"><g/></g></g><g fill="#ffffff" fill-opacity="1"><g transform="translate(240.635562, 200.814493)"><g><path d="M 4.71875 -1.578125 C 6.515625 -0.15625 9.828125 -2.65625 11.03125 -3.53125 C 13.90625 -5.703125 15.8125 -9.234375 17.390625 -12.328125 L 17.8125 -13.203125 L 18.6875 -13.359375 C 19.671875 -13.578125 21.625 -13.46875 22.21875 -12.5 C 22.4375 -12 23.140625 -11.953125 23.25 -12.4375 C 23.3125 -12.65625 22.765625 -13.359375 22.390625 -13.578125 C 21.25 -14.609375 18.359375 -13.859375 18.3125 -14.015625 C 18.75 -15.375 20.421875 -18.90625 20.859375 -20.09375 C 21.453125 -21.671875 22.21875 -24.34375 23.46875 -25.421875 C 24.015625 -25.921875 24.171875 -26.125 24.0625 -26.296875 C 24.015625 -26.515625 23.578125 -26.5625 23.53125 -26.40625 C 23.46875 -26.34375 23.359375 -26.296875 23.3125 -26.296875 C 22.984375 -26.296875 22.21875 -25.59375 21.84375 -24.9375 L 21.40625 -24.171875 C 20.703125 -23.203125 17.5 -22.109375 16.40625 -21.953125 C 14.171875 -21.734375 12.109375 -23.203125 11.734375 -25.375 C 11.625 -25.96875 11.625 -26.234375 11.84375 -27 C 12.109375 -28.203125 12.28125 -28.46875 12.984375 -28.6875 C 15.640625 -29.5 21.515625 -33.40625 21.515625 -36.78125 C 21.515625 -37.59375 21.34375 -37.8125 20.8125 -37.703125 C 18.203125 -37.4375 15 -34.328125 13.578125 -32.375 C 12.71875 -31.234375 11.890625 -29.984375 11.46875 -29.171875 C 11.296875 -28.84375 11.1875 -28.734375 10.8125 -28.6875 C 9.1875 -28.359375 6.734375 -29.234375 7.109375 -31.234375 C 7.109375 -31.515625 7.109375 -31.515625 6.90625 -31.453125 C 6.578125 -31.40625 6.40625 -31.015625 6.40625 -30.421875 C 6.359375 -29.984375 6.796875 -29.34375 7.328125 -28.84375 C 8.09375 -28.203125 9.34375 -28.03125 10.328125 -28.140625 L 10.96875 -28.140625 L 10.75 -27.546875 C 10.15625 -26.015625 10.265625 -24.5625 10.96875 -23.46875 C 12.171875 -21.734375 14.078125 -21.140625 16.140625 -21.34375 C 18.203125 -21.5625 19.71875 -22.546875 20.703125 -23.09375 C 20.75 -23.03125 20.375 -22.0625 19.453125 -19.890625 C 18.796875 -18.421875 18.140625 -16.890625 17.609375 -15.375 C 17 -13.96875 16.84375 -13.578125 16.515625 -13.46875 C 12.71875 -12.171875 9.71875 -10.21875 6.578125 -7.71875 C 5.046875 -6.46875 2.4375 -3.3125 4.71875 -1.578125 Z M 12.875 -29.34375 C 12.765625 -30.09375 15.21875 -33.625 16.46875 -34.546875 C 17.0625 -34.9375 20.96875 -38.6875 21.03125 -36.625 C 21.03125 -36.234375 20.921875 -35.75 20.859375 -35.53125 C 20.203125 -33.6875 17 -31.234375 15.421875 -30.3125 C 13.96875 -29.453125 12.875 -29.015625 12.875 -29.34375 Z M 4.671875 -2.0625 C 4.34375 -2.390625 4.234375 -2.828125 4.234375 -3.3125 C 4.34375 -4.515625 5.375 -5.921875 5.96875 -6.578125 C 6.734375 -7.390625 11.578125 -11.40625 16.46875 -12.9375 C 16.46875 -12.765625 15.75 -11.1875 15.421875 -10.59375 C 13.640625 -7.65625 12.5 -4.828125 9.34375 -2.828125 C 8.09375 -1.953125 6.03125 -0.703125 4.671875 -2.0625 Z M 4.671875 -2.0625 "/></g></g></g><g fill="#ffffff" fill-opacity="1"><g transform="translate(265.295186, 200.814493)"><g><path d="M -0.21875 -14.671875 C 0 -14.390625 1.25 -14.5 1.84375 -14.828125 C 3.15625 -15.53125 3.3125 -16.1875 3.53125 -16.40625 C 5.21875 -16.1875 6.25 -16.40625 7.015625 -16.625 C 7.28125 -16.671875 8.265625 -17.4375 8.265625 -17.5 C 8.265625 -17.71875 7.28125 -17 6.515625 -16.84375 C 5.265625 -16.5625 4.5625 -16.671875 3.796875 -16.78125 C 4.296875 -17.921875 4.5625 -18.953125 3.796875 -20.53125 C 3.265625 -21.453125 1.6875 -21.734375 0.484375 -21.515625 C -0.484375 -21.34375 -1.140625 -20.59375 -1.296875 -19.609375 C -1.40625 -18.859375 -1.296875 -18.421875 -0.703125 -17.984375 C -0.4375 -17.765625 -0.15625 -17.5 -0.15625 -17.4375 C -0.15625 -17.390625 -0.21875 -17.109375 -0.375 -16.84375 C -0.765625 -16.1875 -0.703125 -15.265625 -0.21875 -14.671875 Z M 3.203125 -16.890625 C 2.765625 -16.84375 1.953125 -17 1.734375 -17.21875 C 1.6875 -17.28125 1.796875 -17.4375 1.84375 -17.65625 C 1.953125 -18.140625 1.84375 -18.203125 1.25 -18.203125 C 0.921875 -18.203125 0.765625 -18.203125 0.546875 -17.984375 L 0.328125 -17.765625 L 0.046875 -17.984375 C -0.546875 -18.421875 -0.765625 -19.015625 -0.59375 -19.828125 C -0.484375 -20.421875 -0.15625 -20.8125 0.265625 -21.03125 C 1.359375 -21.5625 3.203125 -20.859375 3.53125 -19.71875 C 3.796875 -18.75 3.53125 -17.390625 3.203125 -16.890625 Z M 0.984375 -15.046875 C 0.765625 -15.046875 0.703125 -15.109375 0.703125 -15.328125 C 0.703125 -15.703125 1.1875 -16.625 1.40625 -16.734375 C 1.515625 -16.78125 1.6875 -16.78125 1.796875 -16.78125 C 2.171875 -16.671875 2.546875 -16.515625 2.9375 -16.515625 C 2.9375 -16.140625 1.46875 -15.046875 0.984375 -15.046875 Z M 0.984375 -15.046875 "/></g></g></g><g fill="#ffffff" fill-opacity="1"><g transform="translate(273.334019, 200.814493)"><g><path d="M 11.625 -36.34375 C 11.46875 -36.78125 11.078125 -36.828125 10.375 -36.34375 C 7.21875 -34.125 4.078125 -28.03125 2.125 -23.578125 L 1.578125 -22.328125 L 1.296875 -22.109375 C 0 -21.1875 -0.765625 -21.03125 -1.6875 -21.40625 C -2.015625 -21.5625 -2.28125 -21.78125 -2.4375 -22 C -2.65625 -22.4375 -2.875 -22.4375 -3.15625 -22.0625 C -3.3125 -21.78125 -3.3125 -21.734375 -3.046875 -21.453125 C -2.65625 -21.03125 -1.90625 -20.703125 -1.1875 -20.75 C -0.484375 -20.75 0.703125 -21.296875 1.359375 -21.734375 C 0.984375 -21.078125 -0.875 -16.625 -1.09375 -15.75 C -1.140625 -15.53125 -1.09375 -15.484375 -0.8125 -15.421875 C -0.484375 -15.375 -0.21875 -15.421875 -0.046875 -16.03125 C 0.046875 -16.359375 0.265625 -16.78125 0.59375 -17.21875 L 0.765625 -17.5 C 1.1875 -18.25 2.609375 -19.453125 3.046875 -19.34375 C 3.375 -19.234375 3.640625 -18.421875 3.578125 -17.71875 C 3.53125 -17.109375 3.484375 -17 2.546875 -16.296875 C 1.46875 -15.421875 -0.109375 -14.171875 -0.65625 -12.9375 C -0.8125 -12.546875 -0.484375 -12.109375 0 -12.0625 C 0.484375 -12 0.8125 -12.171875 1.84375 -13.09375 C 2.984375 -14.078125 4.625 -16.734375 4.625 -18.640625 C 4.625 -19.453125 4.34375 -19.71875 3.90625 -19.9375 C 3.375 -20.15625 2.609375 -20.15625 1.1875 -18.90625 C 2.0625 -21.078125 2.125 -21.40625 2.609375 -22.21875 C 2.828125 -22.546875 3.09375 -22.8125 3.75 -23.359375 L 5.375 -24.875 C 6.625 -26.1875 7.828125 -27.328125 8.90625 -28.734375 C 9.671875 -29.765625 11.25 -32 11.625 -33.1875 C 12.171875 -34.65625 11.796875 -36.015625 11.625 -36.34375 Z M 10.484375 -31.9375 L 10.328125 -31.671875 C 8.359375 -28.515625 7.109375 -27.0625 3.859375 -24.015625 L 2.984375 -23.203125 L 3.421875 -24.234375 C 4.9375 -27.8125 6.296875 -30.265625 8.15625 -32.921875 L 8.90625 -34.125 C 9.234375 -34.609375 10.328125 -36.078125 11.03125 -36.078125 C 11.25 -36.125 11.46875 -35.796875 11.578125 -35.203125 C 11.6875 -34.5 11.359375 -33.296875 10.484375 -31.9375 Z M 2.9375 -15.484375 C 2.34375 -14.171875 1.03125 -12.765625 0.328125 -12.546875 C 0 -12.4375 -0.109375 -12.65625 -0.046875 -13.09375 C 0.046875 -13.359375 1.296875 -14.828125 2.015625 -15.421875 C 2.125 -15.484375 3.15625 -16.46875 3.265625 -16.25 C 3.265625 -16.1875 3.09375 -15.859375 2.9375 -15.484375 Z M 2.9375 -15.484375 "/></g></g></g><g fill="#ffffff" fill-opacity="1"><g transform="translate(280.612415, 200.814493)"><g><path d="M -0.15625 -15.640625 C 0.328125 -15.640625 0.59375 -15.8125 1.359375 -16.40625 L 1.953125 -16.890625 C 2.125 -16.296875 2.4375 -15.859375 2.875 -15.640625 C 4.234375 -14.890625 8.6875 -16.40625 8.96875 -17.546875 C 8.96875 -17.609375 8.53125 -17.171875 7.28125 -16.671875 C 5.921875 -16.25 4.828125 -15.8125 4.125 -16.140625 C 3.3125 -16.515625 3.421875 -17.21875 3.640625 -17.875 C 3.90625 -18.75 4.1875 -19.234375 4.015625 -19.390625 C 3.96875 -19.453125 3.796875 -19.609375 3.6875 -19.78125 C 3.421875 -20.203125 2.9375 -20.265625 2.125 -19.890625 C 0.984375 -19.34375 -0.59375 -17.28125 -0.703125 -16.296875 C -0.765625 -15.8125 -0.59375 -15.640625 -0.15625 -15.640625 Z M 0.375 -16.25 C -0.21875 -16.25 1.25 -18.859375 2.125 -19.390625 C 2.546875 -19.671875 3.15625 -19.71875 3.265625 -19.5 C 3.421875 -19.171875 0.875 -16.25 0.375 -16.25 Z M 0.375 -16.25 "/></g></g></g><g fill="#ffffff" fill-opacity="1"><g transform="translate(289.465976, 200.814493)"><g><path d="M 2.390625 -12.390625 C 2.984375 -12.171875 3.421875 -12.171875 3.90625 -12.390625 C 4.125 -12.5 4.125 -12.546875 3.75 -12.5 C 1.796875 -12.28125 1.25 -14.890625 1.25 -17.21875 C 1.1875 -19.5625 2.9375 -24.125 4.1875 -27.375 C 4.34375 -27.8125 4.5625 -28.25 4.828125 -28.6875 C 5.875 -29.390625 7.390625 -30.703125 8.421875 -31.9375 C 9.1875 -32.8125 10.109375 -33.625 10.484375 -34.71875 C 10.75 -36.234375 9.828125 -36.125 9.015625 -35.75 C 7.828125 -35.265625 5.765625 -32.65625 4.296875 -29.765625 L 3.75 -28.734375 C 3.421875 -28.25 1.46875 -27.59375 0.875 -27.546875 C 0.328125 -27.484375 -0.65625 -27.546875 0.109375 -27.0625 C 0.703125 -26.671875 0.921875 -26.890625 1.625 -27.109375 C 1.90625 -27.21875 3.09375 -27.875 3.09375 -27.8125 C 3.15625 -27.8125 0.703125 -22.0625 0.265625 -20.046875 C -0.21875 -17.765625 -0.375 -13.359375 2.390625 -12.390625 Z M 5 -29.234375 C 4.828125 -29.390625 7.71875 -33.84375 7.9375 -34.125 C 8.640625 -35.046875 9.125 -35.53125 9.40625 -35.578125 C 9.890625 -35.859375 10.640625 -35.796875 10.15625 -34.65625 C 10 -34.0625 8.203125 -31.9375 7.0625 -30.90625 C 6.359375 -30.265625 5.109375 -29.171875 5 -29.234375 Z M 5 -29.234375 "/></g></g></g></svg>